<svg width="110" height="66" viewBox="0 0 110 66" fill="none" xmlns="http://www.w3.org/2000/svg">
<path d="M43.8443 33.4431C43.524 33.4431 43.2036 33.2819 43.0033 32.9999C42.6829 32.5165 42.723 31.872 43.2036 31.5094C45.9269 29.4549 50.2122 28.1658 54.5376 28.1658C58.8629 28.1658 63.0681 29.4549 65.7915 31.5094C66.2721 31.8317 66.3522 32.5165 65.9918 32.9999C65.6714 33.4833 64.9905 33.5639 64.5099 33.2014C62.6676 31.7511 59.0231 30.3009 54.4575 30.3009C49.8918 30.3009 46.2473 31.7914 44.405 33.2014C44.2849 33.3625 44.0846 33.4431 43.8443 33.4431" fill="#ED1C24"/>
<path d="M44.8055 35.2156C44.6053 35.2156 44.365 35.0948 44.2448 34.9336C43.9645 34.6114 44.0446 34.2085 44.365 33.9265C46.7279 31.9526 50.5727 30.7441 54.5376 30.7441C58.5425 30.7441 62.2671 31.9123 64.7102 33.9265C65.0306 34.2085 65.0706 34.6114 64.8303 34.9336C64.55 35.2559 64.1495 35.2559 63.8291 35.0545C61.6664 33.3223 58.2622 32.1943 54.5776 32.1943C50.9331 32.1943 47.4088 33.2417 45.3262 35.0545C45.1259 35.1754 44.9657 35.2156 44.8055 35.2156V35.2156ZM39.2386 20.1896C38.7981 20.1896 38.3976 20.3104 38.0372 20.5119C37.5165 20.8341 37.076 21.3578 36.9158 22.0024C36.7556 22.6469 36.8757 23.2915 37.1961 23.8152C37.6367 24.5403 38.3976 24.9834 39.2386 24.9834C39.6792 24.9834 40.0797 24.8626 40.4401 24.6611C40.9608 24.3389 41.4013 23.8152 41.5615 23.1706C41.7217 22.5261 41.6016 21.8815 41.2812 21.3578C40.9207 20.5924 40.0797 20.1896 39.2386 20.1896ZM54.5376 22.0427C53.2159 22.0427 52.1747 23.09 52.1747 24.4194C52.1747 25.7488 53.2159 26.7962 54.5376 26.7962C55.8592 26.7962 56.9005 25.7488 56.9005 24.4194C56.9405 23.09 55.8592 22.0427 54.5376 22.0427ZM54.5376 16C53.2159 16 52.1747 17.0474 52.1747 18.3768C52.1747 19.7062 53.2159 20.7536 54.5376 20.7536C55.8592 20.7536 56.9005 19.7062 56.9005 18.3768C56.9405 17.128 55.8592 16 54.5376 16ZM48.1697 22.8483C47.9694 22.8483 47.7291 22.8483 47.5289 22.9692C46.2473 23.2915 45.5264 24.6209 45.8468 25.9502C46.1272 26.9573 47.0483 27.6825 48.1697 27.6825H48.2097C48.41 27.6825 48.6503 27.6422 48.7704 27.5616C49.4112 27.4005 49.8918 26.9976 50.2122 26.4336C50.5326 25.8697 50.6528 25.2251 50.4125 24.5806C50.2523 23.5735 49.2911 22.8483 48.1697 22.8483V22.8483ZM42.2824 25.3057C41.8419 25.3057 41.4414 25.4265 41.0809 25.628C40.5603 25.9502 40.1197 26.4739 39.9595 27.1185C39.7993 27.763 39.9195 28.4076 40.2399 28.9313C40.6804 29.6564 41.4414 30.0995 42.2824 30.0995C42.723 30.0995 43.1235 29.9787 43.4839 29.7773C44.0045 29.455 44.4451 28.9313 44.6053 28.2867C44.7655 27.6422 44.6453 26.9976 44.3249 26.4739C43.9244 25.7891 43.1235 25.3057 42.2824 25.3057ZM61.5062 22.9289C61.3059 22.8886 61.0656 22.8081 60.8654 22.8081C59.8241 22.8081 58.8629 23.5332 58.5425 24.5403C58.2221 25.8294 58.9831 27.1185 60.2246 27.5213C60.4249 27.5616 60.6652 27.6422 60.8654 27.6422C61.9067 27.6422 62.8679 26.9171 63.1883 25.91C63.5487 24.6209 62.7477 23.2512 61.5062 22.9289ZM63.0681 17.128C62.8679 17.0877 62.6276 17.0071 62.4273 17.0071C61.386 17.0071 60.4249 17.7322 60.1045 18.7393C59.7841 20.0284 60.545 21.3175 61.7865 21.7204C61.9868 21.7607 62.2271 21.8412 62.4273 21.8412C63.4686 21.8412 64.4298 21.1161 64.7502 20.109C65.1507 18.8199 64.3497 17.4905 63.0681 17.128ZM67.9942 25.7085C67.6338 25.5071 67.1932 25.3863 66.7927 25.3863C65.9517 25.3863 65.1507 25.8294 64.7502 26.5545C64.4298 27.0782 64.3097 27.763 64.4699 28.3673C64.6301 29.0118 64.9905 29.5355 65.5912 29.8578C65.9517 30.0592 66.3922 30.1801 66.7927 30.1801C67.6338 30.1801 68.4348 29.737 68.8353 29.0118C69.1557 28.4882 69.2758 27.8033 69.1156 27.1991C68.9154 26.5545 68.5549 25.9905 67.9942 25.7085ZM72.1594 22.0024C71.9992 21.3578 71.6387 20.8341 71.038 20.5119C70.6775 20.3104 70.237 20.1896 69.8365 20.1896C68.9955 20.1896 68.1945 20.6327 67.794 21.3578C67.4736 21.8815 67.3534 22.5664 67.5136 23.1706C67.6738 23.8152 68.0343 24.3389 68.635 24.6611C68.9955 24.8626 69.436 24.9834 69.8365 24.9834C70.6775 24.9834 71.4785 24.5403 71.879 23.8152C72.1994 23.2512 72.2795 22.6066 72.1594 22.0024ZM46.6078 21.8815C46.808 21.8815 47.0483 21.8815 47.2486 21.7607C48.5301 21.4384 49.251 20.109 48.8906 18.7796C48.6102 17.7322 47.6891 17.0474 46.5677 17.0474C46.3675 17.0474 46.1272 17.0474 45.9269 17.1682C44.6453 17.4905 43.9244 18.8199 44.2448 20.1493C44.6053 21.1161 45.5665 21.8412 46.6078 21.8815ZM87.4583 48.6303C87.4583 49.3555 88.0991 50 88.82 50C89.5409 50 90.1817 49.3555 90.1817 48.6303V39.0427C90.1817 38.3175 89.5409 37.673 88.82 37.673C88.0991 37.673 87.4583 38.3175 87.4583 39.0427V48.6303ZM50.6928 47.3412C51.3737 47.3412 51.9744 47.9052 51.9744 48.6303C51.9744 49.3152 51.4137 49.9194 50.6928 49.9194H46.007C45.5665 49.9194 45.2861 49.5972 45.2861 49.1943V39.2441C45.2861 38.519 45.8468 37.9147 46.6078 37.9147C47.3687 37.9147 47.9294 38.4787 47.9294 39.2441V47.1801C47.9294 47.3009 47.9695 47.3412 48.0896 47.3412H50.6928V47.3412ZM80.1292 38.7607C79.8088 38.1967 79.2882 37.9147 78.5673 37.9147C77.6061 37.9147 76.8452 38.6398 76.8452 39.6066V48.7109C76.8452 49.3957 77.4059 50 78.1668 50C78.8877 50 79.4884 49.436 79.4884 48.7109V43.1517C79.4884 43.1114 79.5285 43.0308 79.6086 43.0308L79.6486 43.0711L82.9728 48.9526C83.2531 49.4763 83.8138 49.7986 84.4546 49.7986C85.4158 49.7986 86.1367 49.0735 86.1367 48.1066V38.8815C86.1367 38.1967 85.576 37.5924 84.8551 37.5924C84.1742 37.5924 83.5735 38.1564 83.5735 38.8815V44.4408L83.4533 44.5616L83.4133 44.5213L80.1292 38.7607V38.7607ZM94.9476 38.7607C94.6272 38.1967 94.1065 37.9147 93.3856 37.9147C92.4244 37.9147 91.6635 38.6398 91.6635 39.6066V48.7109C91.6635 49.3957 92.2242 50 92.9851 50C93.7461 50 94.3068 49.436 94.3068 48.7109V43.1517C94.3068 43.1114 94.3468 43.0308 94.4269 43.0308L94.467 43.0711L97.7911 48.9526C98.0714 49.4763 98.6321 49.7986 99.2729 49.7986C100.234 49.7986 100.955 49.0735 100.955 48.1066V38.8815C100.955 38.1967 100.394 37.5924 99.6734 37.5924C98.9525 37.5924 98.3918 38.1564 98.3918 38.8815V44.4408L98.2717 44.5616L98.2316 44.5213L94.9476 38.7607V38.7607ZM32.1899 41.5403C32.23 41.5403 32.3101 41.5403 32.3101 41.5L35.2737 38.3578C35.474 38.0758 35.7944 37.9953 36.1548 37.9953C36.8357 37.9953 37.4364 38.5592 37.4364 39.2844C37.4364 39.6066 37.3163 39.9289 37.116 40.1303L33.5516 44.3199L33.5116 48.7109C33.5116 49.3957 32.9509 50 32.23 50C31.5491 50 30.9484 49.436 30.9484 48.7109L30.9083 44.3199L27.3439 40.1303C27.1437 39.9289 27.0235 39.6066 27.0235 39.2844C27.0235 38.5995 27.5842 37.9953 28.3051 37.9953C28.6656 37.9953 28.986 38.1564 29.1862 38.3578L32.1499 41.5C32.0698 41.4597 32.1098 41.5403 32.1899 41.5403V41.5403ZM22.0574 40.7346C20.3353 40.7346 18.8534 42.1848 18.8534 43.9573C18.8534 45.7299 20.2952 47.1801 22.0574 47.1801C23.8196 47.1801 25.2614 45.7299 25.2614 43.9573C25.2614 42.1848 23.8596 40.7346 22.0574 40.7346ZM28.0248 43.9573C28.0248 47.2607 25.3815 49.9597 22.0574 49.9597C18.7333 49.9597 16.09 47.3009 16.09 43.9573C16.09 40.6137 18.7333 37.955 22.0574 37.955C25.3815 37.955 28.0248 40.6137 28.0248 43.9573V43.9573ZM69.2358 42.9502V44.9242H70.4372C70.4773 44.9242 70.5574 44.8839 70.5574 44.8033V44.763L69.2358 42.9502V42.9502ZM75.924 47.8246C76.0842 48.0261 76.2044 48.3081 76.2044 48.6303C76.2044 49.3152 75.6437 49.9194 74.9228 49.9194C74.4822 49.9194 74.1218 49.718 73.9216 49.3957L72.5599 47.5427H69.2758V48.59C69.2758 49.3152 68.595 49.9194 67.9141 49.9194C67.2333 49.9194 66.5925 49.3555 66.5925 48.59V39.0024C66.5925 38.2773 67.1532 37.8744 67.9542 37.8744C68.3947 37.8744 68.7552 38.0355 68.9955 38.3578L75.924 47.8246V47.8246ZM39.6391 44.7227V44.763C39.6391 44.8033 39.6792 44.8839 39.7593 44.8839H40.9608V42.91L39.6391 44.7227V44.7227ZM41.2411 38.3578C41.5215 38.0758 41.8819 37.8744 42.2824 37.8744C43.0033 37.8744 43.6441 38.4384 43.6441 39.2441V48.6303C43.6441 49.3555 43.0834 49.9597 42.3225 49.9597C41.5615 49.9597 40.9608 49.3957 40.9608 48.6303V47.5829H37.7168L36.3551 49.436C36.0747 49.7583 35.7944 49.9597 35.3538 49.9597C34.673 49.9597 34.0723 49.3957 34.0723 48.6706C34.0723 48.3483 34.1924 48.1066 34.3526 47.8649L41.2411 38.3578V38.3578ZM55.4988 43.9573C55.4988 47.6635 58.6226 49.8791 61.0656 49.8791C62.7477 49.8791 64.55 49.154 65.5512 47.9858C65.7114 47.7844 65.8716 47.5024 65.8716 47.1801C65.8716 46.4953 65.3109 45.891 64.59 45.891C64.3898 45.891 64.1495 45.9313 64.0293 46.0521L62.988 46.737C62.5074 47.0592 61.9467 47.2204 61.3059 47.2204C59.5838 47.2204 58.142 45.7299 58.142 43.9171C58.142 42.1043 59.5838 40.6137 61.3059 40.6137C61.9467 40.6137 62.5074 40.7749 62.988 41.0972L63.9893 41.782C64.1495 41.9028 64.3497 41.9431 64.55 41.9431C65.2308 41.9431 65.8315 41.3791 65.8315 40.654C65.8315 40.3318 65.7114 40.09 65.5111 39.8483C64.5099 38.6801 63.1082 37.9953 61.386 37.9953C58.142 38.0355 55.4988 40.7346 55.4988 43.9573V43.9573ZM11.8448 40.6943C11.1239 40.6943 10.4831 41.2583 10.4831 41.9834C10.4831 42.7085 11.1239 43.2725 11.8448 43.2725C12.5656 43.2725 13.2064 42.7085 13.2064 41.9834C13.2064 41.2583 12.6457 40.6943 11.8448 40.6943ZM8 42.064C8 40.8957 8.28035 39.8483 9.04129 39.0427C9.72213 38.3578 10.6833 37.9147 11.9249 38.0355C14.2077 38.1967 15.7296 39.8483 15.7296 42.064C15.7296 43.3934 15.0087 44.5616 14.0475 45.0853L16.0099 48.1469C16.1301 48.3081 16.1701 48.5095 16.1701 48.7109C16.1701 49.3957 15.5293 49.9194 14.8885 49.9194C14.5681 49.9194 14.2477 49.7986 14.0475 49.5972L10.9236 45.3673H10.8836C10.7634 45.3673 10.7234 45.4076 10.7234 45.5284L10.6833 48.7109C10.6833 49.3957 10.1226 50 9.40173 50C8.68084 50 8.12015 49.436 8.12015 48.7109L8 42.064V42.064ZM103.678 38.8815C103.799 38.8815 103.879 38.8412 103.879 38.7204C103.879 38.5592 103.758 38.5592 103.678 38.5592H103.398V38.8815H103.678V38.8815ZM103.358 39.6066C103.358 39.7275 103.318 39.7678 103.198 39.7678C103.038 39.7678 103.038 39.7275 103.038 39.6066V38.4384C103.038 38.3175 103.038 38.2773 103.198 38.2773H103.638C103.959 38.2773 104.199 38.3981 104.199 38.7204C104.199 39.0024 104.039 39.1635 103.839 39.1635L104.119 39.6066V39.7275C104.119 39.8483 104.079 39.8886 103.959 39.8886C103.839 39.8886 103.799 39.7678 103.758 39.7275L103.478 39.2844H103.358V39.6066V39.6066ZM103.558 40.0498C104.119 40.0498 104.6 39.5663 104.6 39.0024C104.6 38.4384 104.119 37.955 103.558 37.955C102.998 37.955 102.517 38.4384 102.517 39.0024C102.597 39.5663 102.998 40.0498 103.558 40.0498V40.0498ZM103.558 37.5924C104.279 37.5924 105 38.237 105 39.0427C105 39.7678 104.359 40.4929 103.558 40.4929C102.837 40.4929 102.116 39.8483 102.116 39.0427C102.197 38.237 102.837 37.5924 103.558 37.5924Z" fill="#ED1C24"/>
</svg>
