<svg width="110" height="66" viewBox="0 0 110 66" fill="none" xmlns="http://www.w3.org/2000/svg">
<g clip-path="url(#clip0_15302_111900)">
<path d="M58.4377 14.2414L57.3659 18.7421C54.2398 18.0789 51.0158 18.088 47.8932 18.7692L46.7911 14.2684L49.6029 16.7888L50.4708 14.2549L52.6014 16.9553L54.7276 14.2189L55.6215 16.7348L58.4377 14.2414Z" fill="#343738"/>
<path d="M50.332 13.7643C50.4944 13.7643 50.6531 13.7143 50.7881 13.6206C50.923 13.5269 51.0281 13.3938 51.0901 13.2381C51.152 13.0824 51.168 12.9112 51.136 12.746C51.104 12.5809 51.0255 12.4293 50.9103 12.3105C50.7952 12.1918 50.6487 12.1111 50.4893 12.0788C50.3299 12.0465 50.1649 12.064 50.0151 12.129C49.8653 12.1941 49.7375 12.3038 49.648 12.4443C49.5584 12.5848 49.511 12.7497 49.5119 12.9181C49.513 13.143 49.5999 13.3582 49.7536 13.5167C49.9073 13.6753 50.1152 13.7643 50.332 13.7643" fill="#343738"/>
<path d="M47.1556 12.8867C47.1556 12.7182 47.1074 12.5536 47.0171 12.4136C46.9268 12.2736 46.7984 12.1646 46.6483 12.1004C46.4982 12.0361 46.3331 12.0195 46.1739 12.0527C46.0147 12.0859 45.8686 12.1674 45.7541 12.2868C45.6395 12.4062 45.5618 12.5582 45.5306 12.7235C45.4995 12.8888 45.5163 13.06 45.5791 13.2153C45.6418 13.3707 45.7476 13.5032 45.883 13.5962C46.0185 13.6891 46.1775 13.7382 46.3398 13.7373C46.5566 13.7361 46.7641 13.646 46.917 13.4866C47.0698 13.3272 47.1556 13.1115 47.1556 12.8867" fill="#343738"/>
<path d="M54.8838 13.7643C55.0459 13.7634 55.204 13.7128 55.3383 13.6188C55.4726 13.5248 55.577 13.3916 55.6384 13.2361C55.6998 13.0806 55.7155 12.9097 55.6833 12.745C55.6512 12.5803 55.5727 12.4291 55.4579 12.3106C55.343 12.1921 55.1969 12.1115 55.0379 12.0791C54.8789 12.0466 54.7143 12.0637 54.5647 12.1282C54.4151 12.1927 54.2872 12.3018 54.1973 12.4415C54.1074 12.5813 54.0594 12.7456 54.0594 12.9137C54.0605 13.1397 54.1479 13.356 54.3024 13.5154C54.4569 13.6748 54.6659 13.7643 54.8838 13.7643" fill="#343738"/>
<path d="M58.8716 12C58.7104 12.0018 58.5532 12.0529 58.4198 12.1468C58.2863 12.2408 58.1826 12.3735 58.1215 12.5283C58.0604 12.6831 58.0446 12.8531 58.0762 13.0172C58.1078 13.1812 58.1853 13.3319 58.299 13.4505C58.4127 13.5691 58.5577 13.6503 58.7157 13.6839C58.8736 13.7175 59.0377 13.7021 59.1872 13.6395C59.3368 13.5769 59.4653 13.47 59.5565 13.3321C59.6478 13.1942 59.6979 13.0314 59.7004 12.8642C59.7022 12.7506 59.682 12.6378 59.641 12.5324C59.6 12.427 59.5391 12.3312 59.4618 12.2507C59.3846 12.1701 59.2926 12.1065 59.1912 12.0634C59.0898 12.0204 58.9812 11.9988 58.8716 12" fill="#343738"/>
<path d="M7.11719 46.872H7.5164L9.89866 49.3699L9.88998 46.8675L10.3022 46.863L10.3109 49.991H9.97243L7.53376 47.4346L7.54244 49.9955L7.12587 50L7.11719 46.872Z" fill="#343738"/>
<path d="M13.7953 46.8315H14.1771L15.9128 49.982H15.4789L15.045 49.1584H12.9665L12.5326 49.9865H12.0986L13.7953 46.8315ZM14.8497 48.8298L13.9819 47.241L13.114 48.8388L14.8497 48.8298Z" fill="#343738"/>
<path d="M18.6813 47.1645L17.4142 47.169V46.8405L20.3693 46.8315V47.16L19.1066 47.1645L19.1152 49.9595L18.69 49.964L18.6813 47.1645Z" fill="#343738"/>
<path d="M23.7235 49.9955C23.508 49.9988 23.2932 49.97 23.0856 49.91C22.9062 49.8586 22.7382 49.7715 22.591 49.6534C22.4497 49.5332 22.3394 49.3786 22.2698 49.2034C22.1891 49.0198 22.1491 48.8199 22.1527 48.6183V46.8179H22.5866V48.6183C22.5781 48.7644 22.6014 48.9107 22.6547 49.0462C22.708 49.1818 22.79 49.3031 22.8947 49.4014C23.1359 49.5947 23.4366 49.6907 23.7409 49.6714C24.0383 49.6838 24.3308 49.5901 24.5697 49.4059C24.6743 49.3108 24.7562 49.1917 24.8089 49.0582C24.8616 48.9246 24.8837 48.7802 24.8734 48.6363V46.8359H25.3073V48.6363C25.3111 48.8433 25.2726 49.0488 25.1945 49.2394C25.1267 49.4144 25.0178 49.5691 24.8777 49.6894C24.7313 49.8098 24.5631 49.8985 24.3831 49.9505C24.1742 50.0121 23.958 50.0424 23.7409 50.0405" fill="#343738"/>
<path d="M27.3207 46.809H28.9306C29.1401 46.8061 29.3489 46.8334 29.5511 46.89C29.7084 46.9375 29.8556 47.0154 29.9851 47.1195C30.0745 47.1919 30.1471 47.2842 30.1977 47.3896C30.2499 47.4954 30.2767 47.6127 30.2758 47.7316V47.7316C30.277 47.8529 30.2518 47.9729 30.202 48.0827C30.15 48.187 30.0776 48.279 29.9894 48.3527C29.8913 48.4333 29.7814 48.4971 29.664 48.5418C29.5326 48.5936 29.3956 48.6284 29.2561 48.6453L30.4146 49.919H29.8939L28.8004 48.7083H27.7503V49.9235H27.3164L27.3207 46.809ZM28.9306 48.4202C29.0607 48.4221 29.1904 48.407 29.3168 48.3752C29.4258 48.3499 29.53 48.3058 29.6249 48.2447C29.7053 48.1956 29.7736 48.1278 29.8245 48.0467C29.8762 47.9671 29.9021 47.8725 29.8983 47.7766C29.8989 47.6846 29.8753 47.5941 29.8303 47.5149C29.7852 47.4356 29.7202 47.3705 29.6423 47.3266C29.4238 47.2061 29.1776 47.1501 28.9306 47.1645H27.746V48.4202H28.9306Z" fill="#343738"/>
<path d="M33.6345 46.7684H34.0337L35.7694 49.919H35.3355L34.9015 49.0953H32.8057L32.3717 49.9235H31.9378L33.6345 46.7684ZM34.6889 48.7668L33.821 47.178L32.9532 48.7758L34.6889 48.7668Z" fill="#343738"/>
<path d="M37.5268 46.7774H37.952L37.9564 49.5769L40.0783 49.5679V49.8965L37.5355 49.901L37.5268 46.7774Z" fill="#343738"/>
<path d="M41.8877 46.764H42.3173L43.6928 48.4653L45.064 46.755H45.4936L45.5023 49.8785H45.0771L45.0684 47.3491L43.7015 49.0279H43.6798L42.3043 47.3626L42.3129 49.8875H41.8964L41.8877 46.764Z" fill="#343738"/>
<path d="M47.5895 46.7459L50.3103 46.7369L50.3146 47.0565L48.0148 47.061L48.0191 48.1367L50.0759 48.1322V48.4472L48.0191 48.4562L48.0235 49.5544L50.3493 49.5454V49.8605L47.5982 49.8695L47.5895 46.7459Z" fill="#343738"/>
<path d="M52.2282 46.7324H52.6274L55.0053 49.2258L54.9967 46.7234L55.4132 46.7189L55.4219 49.8469H55.0835L52.6448 47.2905L52.6491 49.856H52.2369L52.2282 46.7324Z" fill="#343738"/>
<path d="M58.5071 47.0385L57.2401 47.043V46.7144L60.1951 46.7054V47.0295L58.9324 47.034L58.941 49.8335L58.5158 49.838L58.5071 47.0385Z" fill="#343738"/>
<path d="M62.0306 46.7009L64.7513 46.6919V47.007L62.4558 47.016L62.4602 48.0917L64.5126 48.0827V48.4022L62.4602 48.4067V49.5049L64.786 49.5004V49.8155L62.0393 49.8245L62.0306 46.7009Z" fill="#343738"/>
<path d="M71.9415 49.838C71.6623 49.8412 71.3843 49.8003 71.117 49.7165C70.8607 49.6323 70.619 49.5062 70.4011 49.3429L70.6658 49.0819C70.8469 49.2228 71.0472 49.3351 71.2602 49.4149C71.4844 49.4902 71.7189 49.5267 71.9545 49.5229C72.1681 49.5303 72.3795 49.4774 72.5663 49.3699C72.6329 49.3322 72.6888 49.277 72.7284 49.2098C72.768 49.1427 72.7899 49.066 72.792 48.9873V48.9873C72.7936 48.92 72.7787 48.8534 72.7486 48.7938C72.7149 48.7278 72.6637 48.6731 72.6011 48.6363C72.506 48.5786 72.4038 48.5347 72.2973 48.5058C72.1374 48.4601 71.9752 48.4241 71.8113 48.3977C71.621 48.3635 71.4327 48.3184 71.2472 48.2627C71.1077 48.2233 70.9746 48.1627 70.8523 48.0827C70.7547 48.0229 70.6738 47.9375 70.618 47.8351C70.5643 47.7315 70.5373 47.6152 70.5399 47.4976V47.4976C70.5394 47.3784 70.5709 47.2615 70.631 47.16C70.697 47.0522 70.7842 46.9601 70.8871 46.89C71.0081 46.8076 71.1416 46.7468 71.2819 46.7099C71.4429 46.6633 71.6095 46.6406 71.7766 46.6424C72.0212 46.6385 72.2652 46.6703 72.5013 46.7369C72.7122 46.8033 72.9136 46.8986 73.1001 47.0205L72.8527 47.295C72.6893 47.1832 72.5109 47.0968 72.3234 47.0385C72.1429 46.9842 71.9558 46.9569 71.7679 46.9575C71.563 46.9483 71.3598 46.9998 71.1821 47.106C71.1202 47.1429 71.068 47.195 71.0301 47.2578C70.9923 47.3206 70.97 47.3922 70.9652 47.4661C70.9656 47.5346 70.9804 47.6021 71.0086 47.6641C71.0463 47.7312 71.1001 47.787 71.1648 47.8261C71.2642 47.8809 71.3689 47.9247 71.4772 47.9567C71.6457 48.0041 71.8166 48.0417 71.9892 48.0692C72.3157 48.1127 72.631 48.2212 72.9178 48.3887C73.0112 48.4467 73.0881 48.5293 73.1407 48.6282C73.1933 48.727 73.2197 48.8385 73.2172 48.9513V48.9513C73.2201 49.0793 73.1886 49.2055 73.1261 49.3159C73.0575 49.427 72.9674 49.522 72.8614 49.5949C72.7366 49.6761 72.6005 49.7368 72.4579 49.775C72.2889 49.8177 72.1155 49.8389 71.9415 49.838" fill="#343738"/>
<path d="M76.5064 46.6199H76.9013L78.637 49.7705H78.1813L77.7474 48.9423H75.6993L75.2653 49.7705H74.8314L76.5064 46.6199ZM77.5608 48.6183L76.693 47.0295L75.8251 48.6228L77.5608 48.6183Z" fill="#343738"/>
<path d="M80.3944 46.6425H81.9956C82.1889 46.637 82.3819 46.6612 82.5684 46.7145C82.7159 46.751 82.8547 46.8184 82.9763 46.9125C83.0516 46.9702 83.1129 47.0455 83.1551 47.1323C83.1973 47.2191 83.2193 47.3149 83.2193 47.4121V47.4121C83.2229 47.5008 83.2081 47.5893 83.1759 47.6716C83.1437 47.7539 83.0949 47.8281 83.0327 47.8892C82.9761 47.9446 82.9135 47.9929 82.8461 48.0332C82.7768 48.0741 82.7042 48.1087 82.6291 48.1367C82.736 48.1617 82.8405 48.1963 82.9416 48.2402C83.0335 48.2784 83.1197 48.3299 83.1976 48.3933C83.2678 48.4517 83.3267 48.5235 83.3711 48.6048C83.4159 48.692 83.4383 48.7896 83.4362 48.8883V48.8883C83.4392 49.0155 83.406 49.1407 83.3408 49.2484C83.2715 49.3612 83.176 49.454 83.0631 49.5184C82.9275 49.5976 82.7812 49.6553 82.6291 49.6895C82.4449 49.7286 82.2574 49.7482 82.0694 49.748H80.3987L80.3944 46.6425ZM81.9348 48.0242C82.1511 48.0323 82.3658 47.9843 82.5597 47.8847C82.6339 47.8459 82.6959 47.7859 82.7382 47.7117C82.7805 47.6375 82.8014 47.5522 82.7984 47.4661C82.795 47.3906 82.7733 47.3173 82.7354 47.2528C82.6975 47.1883 82.6445 47.1347 82.5814 47.097C82.3898 46.9956 82.1756 46.949 81.9609 46.962H80.8197V48.0332L81.9348 48.0242ZM82.0867 49.4419C82.321 49.4541 82.5542 49.4029 82.7636 49.2934C82.8382 49.2566 82.901 49.1985 82.9448 49.126C82.9886 49.0534 83.0116 48.9694 83.011 48.8838C83.0084 48.7996 82.983 48.7178 82.9377 48.6477C82.8924 48.5777 82.8291 48.5223 82.755 48.4878C82.5205 48.3799 82.2646 48.3321 82.0086 48.3482H80.824V49.4509L82.0867 49.4419Z" fill="#343738"/>
<path d="M85.3108 46.6199H86.9294C87.1403 46.6168 87.3506 46.644 87.5542 46.7009C87.7118 46.7476 87.8592 46.8256 87.9882 46.9305C88.0788 47.0028 88.1528 47.095 88.2051 47.2005C88.2573 47.3063 88.2841 47.4237 88.2832 47.5426V47.5426C88.2861 47.6646 88.2592 47.7853 88.2051 47.8936C88.1562 47.9988 88.085 48.0911 87.9968 48.1637C87.8987 48.2442 87.7889 48.3081 87.6714 48.3527C87.5396 48.404 87.4028 48.4402 87.2635 48.4607L88.4221 49.73H87.9014L86.8035 48.5192H85.7274V49.7705H85.2935L85.3108 46.6199ZM86.899 48.2087C87.0305 48.2108 87.1617 48.1957 87.2895 48.1637C87.3975 48.137 87.5012 48.0946 87.5976 48.0377C87.6763 47.9844 87.7441 47.9156 87.7972 47.8351C87.8457 47.7541 87.8713 47.6605 87.871 47.5651V47.5651C87.8716 47.4731 87.8481 47.3826 87.803 47.3033C87.7579 47.2241 87.6929 47.159 87.615 47.115C87.3966 46.9946 87.1501 46.94 86.9033 46.9575H85.7361V48.2267L86.899 48.2087Z" fill="#343738"/>
<path d="M91.9932 49.7705C91.7264 49.775 91.4608 49.7324 91.2078 49.6445C90.9864 49.5668 90.7805 49.4478 90.6003 49.2934C90.4362 49.1533 90.303 48.9784 90.2098 48.7803C90.1185 48.5902 90.0709 48.3806 90.0709 48.1682C90.0715 47.9544 90.119 47.7435 90.2098 47.5516C90.3026 47.352 90.4358 47.1755 90.6003 47.034C90.7799 46.8786 90.9859 46.7595 91.2078 46.683C91.4599 46.5901 91.7258 46.5444 91.9932 46.5479C92.2587 46.5415 92.5232 46.5841 92.7743 46.6739C92.9952 46.7508 93.2009 46.8682 93.3818 47.0205C93.5451 47.1613 93.6782 47.3361 93.7723 47.5336C93.8644 47.7235 93.912 47.9332 93.9112 48.1457C93.9112 48.1457 93.9112 48.1457 93.9112 48.1457C93.914 48.3594 93.8679 48.5707 93.7767 48.7623C93.6808 48.9612 93.5463 49.1374 93.3818 49.2799C93.203 49.435 92.9986 49.5555 92.7786 49.6355C92.5265 49.7279 92.2606 49.7736 91.9932 49.7705V49.7705ZM91.9932 49.4419C92.1954 49.4445 92.3965 49.411 92.5877 49.3429C92.7575 49.2799 92.9149 49.1854 93.052 49.0639C93.1783 48.9512 93.2815 48.8135 93.3558 48.6588C93.4264 48.5024 93.4634 48.3319 93.4642 48.1592V48.1592C93.4646 47.9844 93.426 47.8119 93.3514 47.6551C93.2777 47.4976 93.1709 47.3592 93.039 47.25C92.8992 47.1301 92.7407 47.0357 92.5703 46.971C92.3791 46.9029 92.178 46.8694 91.9759 46.872C91.7734 46.8703 91.5722 46.9053 91.3814 46.9755C91.2109 47.0349 91.0532 47.1281 90.9171 47.25C90.7897 47.3634 90.6863 47.5029 90.6133 47.6596C90.5397 47.815 90.5025 47.9861 90.5048 48.1592C90.5045 48.3326 90.5432 48.5036 90.6177 48.6588C90.6923 48.8157 90.7971 48.9551 90.9258 49.0684C91.0673 49.1869 91.2273 49.2798 91.3987 49.3429C91.5893 49.4136 91.7909 49.4471 91.9932 49.4419" fill="#343738"/>
<path d="M97.144 49.7704C96.8648 49.7737 96.5868 49.7327 96.3195 49.6489C96.0628 49.5657 95.821 49.4395 95.6035 49.2753L95.8682 49.0143C96.0509 49.1554 96.2527 49.2676 96.467 49.3474C96.6911 49.4231 96.9257 49.4596 97.1613 49.4554C97.3737 49.4645 97.5842 49.4115 97.7688 49.3024C97.8362 49.2652 97.893 49.2103 97.9333 49.1431C97.9737 49.0759 97.9963 48.9989 97.9988 48.9198C97.9984 48.8527 97.9836 48.7866 97.9554 48.7262C97.92 48.66 97.8674 48.6055 97.8035 48.5687C97.7065 48.5044 97.6014 48.4544 97.4911 48.4202C97.3609 48.3842 97.2004 48.3482 97.0008 48.3122C96.8107 48.2788 96.6224 48.2352 96.4367 48.1817C96.2976 48.139 96.1647 48.0769 96.0418 47.9971C95.946 47.9348 95.8658 47.85 95.8075 47.7496C95.7568 47.645 95.7315 47.5291 95.7337 47.412C95.7316 47.2933 95.7617 47.1763 95.8205 47.0745C95.8866 46.9653 95.9756 46.8731 96.0808 46.8044C96.2014 46.7241 96.3331 46.6633 96.4714 46.6244C96.6324 46.5781 96.7989 46.5554 96.9661 46.5569C97.2107 46.5529 97.4546 46.5847 97.6907 46.6514C97.9032 46.7156 98.105 46.8127 98.2895 46.9394L98.0465 47.2095C97.8811 47.0984 97.7014 47.0121 97.5128 46.9529C97.3326 46.8977 97.1452 46.8719 96.9574 46.8764C96.7529 46.8662 96.5498 46.9161 96.3716 47.0205C96.3082 47.0552 96.2551 47.1069 96.2177 47.1703C96.1803 47.2336 96.16 47.3062 96.1589 47.3805V47.3805C96.1568 47.4493 96.1717 47.5175 96.2023 47.5786C96.2379 47.6474 96.2922 47.7037 96.3586 47.7406C96.4555 47.8008 96.5609 47.8448 96.671 47.8711C96.8389 47.9212 97.01 47.9588 97.183 47.9836C97.5092 48.0283 97.8243 48.1368 98.1116 48.3032C98.205 48.3612 98.2819 48.4438 98.3345 48.5426C98.3871 48.6414 98.4135 48.7529 98.411 48.8658V48.8658C98.4136 48.9943 98.3804 49.1208 98.3156 49.2303C98.2481 49.3424 98.1578 49.4376 98.0509 49.5094C97.9278 49.594 97.7912 49.655 97.6473 49.6894C97.4783 49.7322 97.3049 49.7533 97.1309 49.7524" fill="#343738"/>
<path d="M102.073 49.7705C101.808 49.7733 101.544 49.7291 101.292 49.6399C101.071 49.5649 100.865 49.4473 100.685 49.2934C100.521 49.1526 100.388 48.9778 100.294 48.7803C100.201 48.5909 100.153 48.3808 100.155 48.1682C100.153 47.9545 100.199 47.7432 100.29 47.5516C100.386 47.3539 100.518 47.1779 100.68 47.034C100.861 46.8797 101.067 46.7594 101.288 46.6784C101.541 46.5897 101.806 46.5455 102.073 46.5479C102.34 46.5415 102.606 46.5841 102.859 46.6739C103.078 46.7519 103.282 46.8692 103.462 47.0205C103.625 47.1624 103.76 47.3369 103.857 47.5336C103.948 47.7239 103.995 47.9333 103.996 48.1457C103.996 48.1457 103.996 48.1457 103.996 48.1457C103.995 48.3595 103.948 48.5703 103.857 48.7623C103.762 48.9609 103.63 49.1372 103.466 49.2799C103.285 49.4342 103.08 49.5545 102.859 49.6354C102.606 49.7236 102.34 49.7692 102.073 49.7705V49.7705ZM102.073 49.4419C102.287 49.4389 102.498 49.3978 102.698 49.3204C102.869 49.2595 103.027 49.1647 103.163 49.0413C103.289 48.9287 103.392 48.7909 103.466 48.6363C103.539 48.4806 103.576 48.3096 103.575 48.1367V48.1367C103.575 47.9619 103.536 47.7894 103.462 47.6326C103.388 47.4763 103.283 47.3381 103.154 47.2275C103.014 47.1059 102.853 47.0114 102.681 46.9485C102.295 46.8133 101.878 46.8133 101.492 46.9485C101.322 47.0089 101.164 47.102 101.028 47.223C100.9 47.3364 100.797 47.4758 100.724 47.6326C100.65 47.7879 100.613 47.9591 100.615 48.1322V48.1322C100.616 48.3055 100.654 48.4764 100.728 48.6318C100.803 48.7899 100.909 48.9295 101.041 49.0413C101.18 49.1608 101.339 49.2538 101.509 49.3159C101.7 49.384 101.902 49.4175 102.104 49.4149" fill="#343738"/>
<path d="M103.605 43.6584L7.27339 43.9645C7.21815 43.9645 7.16518 43.9417 7.12611 43.9012C7.08705 43.8607 7.06511 43.8057 7.06511 43.7484C7.06453 43.7203 7.06938 43.6923 7.07937 43.6661C7.08936 43.6399 7.10429 43.6161 7.12329 43.5959C7.14228 43.5758 7.16496 43.5598 7.18999 43.5489C7.21502 43.538 7.2419 43.5324 7.26905 43.5324L103.601 43.2263C103.658 43.2263 103.714 43.2501 103.754 43.2923C103.795 43.3345 103.818 43.3917 103.818 43.4514C103.818 43.5111 103.795 43.5683 103.754 43.6105C103.714 43.6527 103.658 43.6764 103.601 43.6764" fill="#343738"/>
<path d="M103.539 21.9242L7.20775 22.2303C7.1502 22.2303 7.09502 22.2065 7.05433 22.1643C7.01364 22.1221 6.99078 22.0649 6.99078 22.0052C6.99078 21.9455 7.01364 21.8883 7.05433 21.8461C7.09502 21.8039 7.1502 21.7802 7.20775 21.7802L103.539 21.4741C103.567 21.4735 103.594 21.4787 103.62 21.4893C103.645 21.5 103.669 21.5158 103.688 21.536C103.708 21.5562 103.723 21.5803 103.733 21.6068C103.743 21.6333 103.748 21.6616 103.748 21.6902C103.748 21.7475 103.726 21.8024 103.687 21.8429C103.648 21.8834 103.595 21.9062 103.539 21.9062" fill="#343738"/>
<path d="M10.4453 31.8664C10.4453 32.2625 10.4106 32.6855 10.415 33.1311C10.415 35.0394 10.671 36.4887 11.1657 37.4699C11.3468 37.9096 11.6496 38.2838 12.0358 38.545C12.422 38.8061 12.8743 38.9426 13.3353 38.9371C13.7445 38.9541 14.1514 38.866 14.5199 38.6806C14.8301 38.5038 15.0847 38.2382 15.2533 37.9154C15.2966 37.8299 15.34 37.7399 15.3834 37.6364C15.5204 37.2969 15.7506 37.0067 16.0453 36.8019C16.34 36.597 16.6863 36.4866 17.041 36.4842H17.0888V39.6347C16.4275 39.8035 15.7584 39.9372 15.084 40.0353C14.4596 40.1206 13.8306 40.1642 13.2008 40.1658C12.025 40.2189 10.8559 39.9553 9.80747 39.4007C8.92308 38.8721 8.23889 38.0466 7.86782 37.0603C7.40775 35.7883 7.19252 34.435 7.23428 33.0771C7.23428 32.672 7.25164 32.2805 7.28636 31.9024C7.36271 30.9593 7.59001 30.036 7.95894 29.1704C8.4103 28.1029 9.16789 27.2055 10.1286 26.6005C11.1628 25.9778 12.3438 25.6661 13.5392 25.7003C15.2229 25.7003 15.5006 26.3755 15.583 26.3755C15.6221 26.2314 15.6611 26.0829 15.6915 25.9254H17.0714V29.1839H15.7089C15.6133 28.5484 15.3488 27.953 14.9452 27.4647C14.7685 27.2795 14.5563 27.135 14.3223 27.0404C14.0883 26.9458 13.8378 26.9033 13.587 26.9156C13.0854 26.9076 12.5927 27.0527 12.1699 27.3328C11.7472 27.6128 11.413 28.0155 11.2091 28.4908C10.7312 29.5486 10.4725 30.6985 10.4497 31.8664C10.4497 31.8664 10.4497 31.8664 10.4497 31.8664" fill="#343738"/>
<path d="M29.5729 25.7904V26.479C29.7801 26.5302 29.981 26.6057 30.1717 26.704C30.3082 26.7817 30.4198 26.899 30.4928 27.0416C30.5678 27.2105 30.6133 27.3918 30.6273 27.5772C30.6273 27.7932 30.636 28.0677 30.6534 28.4008L30.6881 40.0128H32.836C33.0973 40.0057 33.3453 39.8922 33.5265 39.6967C33.7076 39.5013 33.8072 39.2397 33.8037 38.9686L33.7646 25.7679L29.5729 25.7904Z" fill="#343738"/>
<path d="M46.5568 39.0586C46.39 38.9129 46.2554 38.7318 46.1619 38.5275C46.0134 38.1677 45.8888 37.7977 45.7887 37.4203L43.0246 27.7977L42.4388 25.7543H38.1863V26.4565C38.3932 26.506 38.593 26.5831 38.7808 26.686C38.9212 26.7596 39.0353 26.8779 39.1063 27.0235C39.1479 27.1111 39.1799 27.2032 39.2017 27.2981L36.0471 36.1061L35.6131 37.3573C35.5003 37.6769 35.3918 37.9514 35.2877 38.1765L34.5717 40.0803H35.6088C35.8128 40.08 36.0118 40.0141 36.1781 39.8915C36.3444 39.769 36.47 39.5959 36.5374 39.3962L37.8045 35.6695H42.1437L42.4171 36.6912V36.7272L43.3414 40.0038V40.0758H46.5611C46.6481 40.0758 46.7342 40.0579 46.8145 40.0233C46.8948 39.9886 46.9677 39.9378 47.029 39.8738C47.0903 39.8098 47.1388 39.7339 47.1717 39.6503C47.2046 39.5668 47.2213 39.4774 47.2207 39.3872C46.977 39.3474 46.7462 39.247 46.5481 39.0946L46.5568 39.0586ZM38.2124 34.4408L39.2798 31.2903L39.9134 29.418L40.2041 28.5583L41.8313 34.4093L38.2124 34.4408Z" fill="#343738"/>
<path d="M59.1233 30.1696C58.9673 29.4988 58.6953 28.8629 58.3205 28.2928C57.941 27.7375 57.4586 27.2662 56.9016 26.9065C56.2877 26.5052 55.6106 26.2188 54.9012 26.0604C53.9791 25.8646 53.039 25.7755 52.098 25.7948H46.8909V26.5015C47.0996 26.5516 47.301 26.6303 47.4897 26.7355C47.6262 26.8132 47.7378 26.9305 47.8108 27.0731C47.8894 27.2422 47.9351 27.4257 47.9453 27.6132C47.9627 27.8352 47.9713 28.1097 47.9713 28.4368V33.7072V40.0353H51.4428C52.3418 40.0464 53.2402 39.9801 54.1288 39.8372C54.8865 39.7078 55.6191 39.4525 56.2984 39.0811C56.9107 38.7437 57.4532 38.2849 57.8952 37.7309C58.4049 37.0801 58.7774 36.3258 58.9887 35.5165C59.2436 34.5674 59.3649 33.5851 59.3489 32.6C59.3559 31.7874 59.2655 30.9771 59.0799 30.1876L59.1233 30.1696ZM55.7603 35.9126C55.5804 36.6069 55.2443 37.247 54.7797 37.7804C54.5137 38.0785 54.1898 38.3148 53.8294 38.4735C53.2388 38.7155 52.6069 38.8303 51.9721 38.8111C51.8518 38.8123 51.7323 38.7887 51.6208 38.7417C51.5092 38.6948 51.4077 38.6253 51.3222 38.5374C51.2366 38.4496 51.1687 38.345 51.1224 38.2297C51.0761 38.1144 51.0522 37.9908 51.0522 37.8659L51.0219 27.0641C51.2041 27.0641 51.4992 27.0641 51.9157 27.0641C52.701 27.037 53.4765 27.2499 54.1461 27.6762C54.8101 28.1438 55.3156 28.8161 55.5911 29.598C55.9658 30.6485 56.1426 31.7639 56.1118 32.8836C56.1372 33.9145 56.0188 34.9438 55.7603 35.9396" fill="#343738"/>
<path d="M66.0878 40.1478C64.1178 40.1478 62.6381 39.5477 61.6487 38.3475C60.6594 37.1473 60.1676 35.3665 60.1734 33.0051C60.1327 31.6319 60.3722 30.2653 60.8763 28.9949C61.3059 27.9419 62.0436 27.0555 62.9852 26.461C63.995 25.8587 65.1446 25.5552 66.3091 25.5833C68.3139 25.5833 69.8196 26.1744 70.8263 27.3566C71.833 28.5388 72.332 30.3091 72.3233 32.6675C72.3513 33.8124 72.2048 34.9546 71.8894 36.0521C71.6391 36.9135 71.2078 37.7066 70.6267 38.3745C70.0837 38.9817 69.4081 39.4448 68.6567 39.7247C67.8317 40.0268 66.9627 40.179 66.0878 40.1748V40.1478ZM63.3454 32.7396C63.3454 34.8399 63.5927 36.4017 64.0874 37.4249C64.2669 37.8836 64.576 38.2752 64.974 38.5484C65.3721 38.8215 65.8406 38.9633 66.3178 38.9551C66.7879 38.9591 67.2458 38.8008 67.6196 38.505C68.0006 38.1799 68.2986 37.7626 68.4874 37.2898C68.7282 36.7022 68.8888 36.0826 68.9647 35.449C69.0629 34.6746 69.1093 33.8941 69.1036 33.1131C69.1213 31.9457 69.0107 30.78 68.7738 29.6385C68.6337 28.8613 68.3035 28.1345 67.8148 27.5277C67.6097 27.2973 67.3597 27.1148 67.0814 26.9922C66.8031 26.8696 66.5029 26.8098 66.2006 26.8165C65.7404 26.8063 65.2877 26.9393 64.901 27.1984C64.5142 27.4575 64.2112 27.8309 64.031 28.2703C63.5624 29.2334 63.328 30.7187 63.3367 32.726" fill="#343738"/>
<path d="M93.8071 26.884V25.6643L83.9309 25.6958V26.3664C84.1402 26.4145 84.3419 26.4933 84.5297 26.6005C84.6662 26.6781 84.7778 26.7955 84.8508 26.938C84.9324 27.106 84.9783 27.2902 84.9853 27.4781C85.0027 27.6972 85.0114 27.9717 85.0114 28.3018L85.0374 37.3033V37.4248V39.9183H92.8481C93.1101 39.9159 93.3607 39.8063 93.5451 39.6132C93.7296 39.4202 93.8331 39.1594 93.8331 38.8876V38.6941H88.1443V33.1311H92.0497V31.9114H88.1443V26.9065L93.8071 26.884Z" fill="#343738"/>
<path d="M103.566 35.8496C103.57 36.2769 103.516 36.7027 103.406 37.1143C103.315 37.4542 103.178 37.7787 102.998 38.0775C102.598 38.7252 102.019 39.232 101.336 39.5312C100.784 39.7761 100.198 39.928 99.6 39.9813C99.3307 40.014 99.0598 40.0305 98.7886 40.0308C98.103 40.0308 97.3913 39.9948 96.6493 39.9183C95.9491 39.845 95.2536 39.7293 94.5665 39.5717V37.2538H94.6402C95.0394 37.2564 95.4341 37.3414 95.8014 37.5036C96.1686 37.6659 96.5011 37.9022 96.7795 38.199V38.199C97.0146 38.4158 97.2896 38.5811 97.5879 38.6847C97.8862 38.7884 98.2016 38.8283 98.5152 38.8021C98.7446 38.8037 98.9733 38.7765 99.1965 38.7211C99.3274 38.6899 99.4552 38.6462 99.5783 38.5906C99.8927 38.4525 100.158 38.2166 100.338 37.9154C100.536 37.5638 100.633 37.1612 100.62 36.7542C100.629 36.3666 100.549 35.9823 100.385 35.6335C100.201 35.2821 99.9465 34.9753 99.6391 34.7334C99.1918 34.3847 98.7121 34.0832 98.2071 33.8332C97.7182 33.5842 97.2444 33.3047 96.7882 32.9961L96.6884 32.9241C96.3258 32.6687 95.9962 32.3661 95.7077 32.0239C95.4128 31.686 95.1765 31.2977 95.0091 30.8762C94.8397 30.4291 94.7543 29.9524 94.7574 29.472C94.7333 28.6962 94.9459 27.9323 95.3649 27.2891C95.5329 27.0414 95.7329 26.8187 95.9594 26.6275C96.0987 26.519 96.2436 26.4184 96.3933 26.326C96.67 26.1512 96.9603 26.0006 97.2612 25.8759H97.2872C98.0944 25.569 98.9486 25.4165 99.8083 25.4258C100.423 25.4222 101.038 25.4583 101.648 25.5338L101.878 25.5698C101.917 25.4303 101.952 25.2773 101.987 25.1198H103.375V28.9364H101.995C101.99 28.9029 101.983 28.8699 101.974 28.8374V28.8374C101.952 28.7519 101.935 28.6709 101.913 28.5898C101.797 28.078 101.561 27.6036 101.227 27.2081L101.101 27.0911C100.754 26.7873 100.31 26.6271 99.856 26.641C99.6204 26.6404 99.3857 26.6707 99.1574 26.731C98.9732 26.7619 98.7937 26.8179 98.6237 26.8976C98.3334 27.0286 98.0861 27.2444 97.912 27.5187C97.8989 27.5387 97.8872 27.5597 97.8773 27.5817C97.7237 27.8657 97.6472 28.1877 97.656 28.5133C97.6474 28.8773 97.7264 29.2377 97.886 29.562C98.0769 29.9029 98.3358 30.1975 98.6454 30.4262C99.1355 30.7893 99.6536 31.11 100.194 31.3848C100.89 31.7396 101.544 32.1761 102.143 32.6855C102.584 33.0686 102.942 33.5441 103.193 34.0808C103.428 34.6333 103.545 35.2322 103.536 35.8361" fill="#343738"/>
<path d="M82.9719 37.4429L82.1821 35.6426L82.0693 35.3995C81.8817 35.0393 81.653 34.7038 81.3881 34.4003C81.2839 34.2803 81.1707 34.1689 81.0496 34.0673C80.7794 33.8383 80.4782 33.6518 80.1557 33.5137V33.4057C80.6401 33.2042 81.1015 32.9476 81.5313 32.6405L81.7265 32.492C82.1196 32.1621 82.4368 31.7454 82.6551 31.2723C82.897 30.7236 83.0143 30.1246 82.9979 29.5215C83.0026 29.0558 82.9352 28.5923 82.7983 28.1488C82.7057 27.877 82.5803 27.6184 82.4251 27.3791C82.3679 27.2899 82.3056 27.2042 82.2386 27.1226C81.9901 26.8212 81.6881 26.5721 81.349 26.389C80.8929 26.1393 80.4027 25.9632 79.8954 25.8669C79.2308 25.7453 78.5566 25.6895 77.8819 25.7004H72.0239V26.389C72.2327 26.4391 72.434 26.5178 72.6227 26.623C72.7592 26.7007 72.8708 26.818 72.9438 26.9606C73.0244 27.1289 73.0703 27.3129 73.0784 27.5007C73.0957 27.7257 73.1044 28.0002 73.1044 28.3243L73.1304 36.4842V39.9273H75.2523C75.5091 39.925 75.7548 39.8188 75.9372 39.6313C76.1196 39.4438 76.2242 39.1899 76.2287 38.9236V33.9728H76.8101C77.0885 33.9583 77.3669 33.9995 77.6303 34.0943C77.8348 34.2009 78.013 34.3549 78.151 34.5444C78.3899 34.897 78.5934 35.274 78.7585 35.6696L79.5439 37.4699L79.661 37.7219C79.9291 38.3208 80.229 38.9038 80.5593 39.4682C80.6487 39.6146 80.7724 39.7351 80.9188 39.8186C81.0652 39.902 81.2297 39.9456 81.3967 39.9453H84.291C83.7764 39.1632 83.3333 38.333 82.9676 37.4654L82.9719 37.4429ZM79.7912 30.9753C79.7571 31.1389 79.7077 31.2987 79.6437 31.4523C79.5716 31.613 79.4813 31.7641 79.3746 31.9024C79.1546 32.1812 78.8692 32.3966 78.5458 32.528C78.1217 32.6929 77.6708 32.7708 77.218 32.7576H76.2287V26.9606H76.3632C76.5715 26.9606 76.9056 26.9606 77.3656 26.9606C77.7135 26.9321 78.0633 26.9798 78.3923 27.1008C78.7212 27.2218 79.0219 27.4132 79.2748 27.6627C79.4337 27.8342 79.5616 28.0339 79.6524 28.2523C79.8482 28.7377 79.9414 29.2611 79.9257 29.7871C79.9302 30.1862 79.8923 30.5847 79.8129 30.9753" fill="#343738"/>
<path d="M28.7658 37.6184L27.9761 35.8181C27.937 35.7326 27.9023 35.6516 27.8632 35.575C27.6781 35.2193 27.4538 34.8871 27.195 34.5849C27.0912 34.466 26.9795 34.3547 26.8609 34.2518C26.5884 34.0238 26.286 33.8374 25.9626 33.6982V33.5947C26.4464 33.3901 26.9076 33.132 27.3382 32.8251L27.5334 32.6765C27.9265 32.3466 28.2438 31.9299 28.462 31.4568C28.704 30.9081 28.8212 30.3092 28.8049 29.706C28.81 29.2477 28.7426 28.7915 28.6052 28.3558C28.5153 28.0814 28.3897 27.821 28.2321 27.5817C28.1748 27.4924 28.1125 27.4068 28.0455 27.3251C27.8035 27.0259 27.509 26.777 27.1776 26.5915C26.7215 26.3418 26.2313 26.1658 25.724 26.0694C25.0594 25.9478 24.3853 25.8921 23.7106 25.9029H17.8525V26.5915C18.0607 26.6437 18.2618 26.7223 18.4514 26.8255C18.589 26.9031 18.702 27.0204 18.7768 27.1631C18.8538 27.3326 18.898 27.5161 18.907 27.7032C18.9243 27.9282 18.933 28.2028 18.933 28.5268L18.9591 36.6867V40.1298H21.081C21.2108 40.1304 21.3395 40.1043 21.4596 40.0528C21.5796 40.0014 21.6887 39.9258 21.7803 39.8303C21.8719 39.7349 21.9444 39.6215 21.9934 39.4967C22.0425 39.372 22.0671 39.2384 22.066 39.1036V34.1528H22.6518C22.9291 34.137 23.2067 34.1799 23.4676 34.2788C23.6733 34.3835 23.8519 34.5378 23.9883 34.7289C24.2262 35.0822 24.4297 35.4591 24.5958 35.8541L25.3812 37.6544L25.4983 37.9109C25.7672 38.5079 26.0671 39.0894 26.3966 39.6527C26.4858 39.7879 26.6047 39.8993 26.7435 39.9775C26.8823 40.0557 27.0371 40.0987 27.195 40.1028H30.0849C29.5785 39.321 29.1427 38.4923 28.7832 37.6274L28.7658 37.6184ZM25.5895 31.1238C25.5567 31.2892 25.5073 31.4507 25.4419 31.6054C25.3692 31.7656 25.2789 31.9166 25.1729 32.0554C24.9529 32.3342 24.6675 32.5496 24.3441 32.681C23.9287 32.8448 23.4865 32.9228 23.0423 32.9106H22.0443L21.9879 27.1316H22.1224C22.3307 27.1316 22.6648 27.1316 23.1247 27.1316C23.4733 27.103 23.8238 27.1507 24.1535 27.2717C24.4832 27.3926 24.7846 27.5841 25.0384 27.8337C25.1955 28.0074 25.3218 28.2086 25.4115 28.4278C25.6078 28.9115 25.701 29.4335 25.6849 29.9581C25.6895 30.3572 25.6517 30.7557 25.5721 31.1463" fill="#343738"/>
</g>
<defs>
<clipPath id="clip0_15302_111900">
<rect width="97" height="38" fill="white" transform="translate(7 12)"/>
</clipPath>
</defs>
</svg>
