<svg width="110" height="66" viewBox="0 0 110 66" fill="none" xmlns="http://www.w3.org/2000/svg">
<path d="M101 50H13.7081C12.1951 49.9984 10.7445 49.4038 9.67439 48.3466C8.60433 47.2893 8.00218 45.8559 8 44.3605V21.2608H95.2899C96.8034 21.2624 98.2546 21.8573 99.325 22.9149C100.395 23.9725 100.998 25.4065 101 26.9024V50Z" fill="#051B3F"/>
<path d="M8.43465 21.7006V44.3605C8.43628 45.7425 8.99233 47.0674 9.98088 48.0448C10.9694 49.0222 12.3098 49.5723 13.7081 49.5745H100.563V26.9024C100.559 25.5222 100.002 24.1997 99.0139 23.2247C98.0255 22.2497 96.6863 21.7017 95.2899 21.7006H8.43465ZM101 50H13.7081C12.1951 49.9984 10.7445 49.4038 9.67439 48.3466C8.60433 47.2893 8.00218 45.8559 8 44.3605V21.2608H95.2899C96.8034 21.2624 98.2546 21.8573 99.325 22.9149C100.395 23.9725 100.998 25.4065 101 26.9024V50Z" fill="white"/>
<path d="M86.5969 16.8327C86.4376 16.8327 86.2819 16.8794 86.1494 16.9669C86.017 17.0543 85.9138 17.1786 85.8528 17.3241C85.7918 17.4696 85.7759 17.6296 85.807 17.784C85.838 17.9385 85.9148 18.0803 86.0274 18.1916C86.14 18.303 86.2836 18.3788 86.4398 18.4095C86.596 18.4402 86.758 18.4244 86.9051 18.3642C87.0523 18.3039 87.1781 18.2019 87.2666 18.071C87.3551 17.9401 87.4024 17.7862 87.4024 17.6287C87.4018 17.4178 87.3168 17.2156 87.1658 17.0664C87.0149 16.9173 86.8104 16.8332 86.5969 16.8327V16.8327ZM92.0681 21.4156C92.0665 22.4847 91.7442 23.5294 91.1421 24.4176C90.5399 25.3057 89.6848 25.9975 88.685 26.4056C87.6851 26.8136 86.5853 26.9195 85.5245 26.71C84.4637 26.5004 83.4896 25.9847 82.7253 25.2282C81.961 24.4716 81.4407 23.5081 81.2303 22.4594C81.0198 21.4107 81.1286 20.3238 81.543 19.3362C81.9573 18.3486 82.6586 17.5046 83.5581 16.9108C84.4577 16.3169 85.5152 16 86.5969 16C87.3159 16.0005 88.0278 16.141 88.6919 16.4135C89.356 16.6859 89.9593 17.085 90.4673 17.5879C90.9754 18.0908 91.3782 18.6876 91.6529 19.3444C91.9276 20.0011 92.0687 20.7049 92.0681 21.4156" fill="#E04312"/>
<path d="M88.3108 20.3935C88.2864 20.3735 88.2671 20.3483 88.2542 20.3197C88.2413 20.2911 88.2353 20.2599 88.2366 20.2286C88.2407 20.1536 88.2689 20.0818 88.317 20.0236C88.3652 19.9654 88.4308 19.9238 88.5044 19.9049C88.5368 19.8967 88.5706 19.8957 88.6034 19.9021C88.6361 19.9084 88.6671 19.9219 88.6939 19.9416C88.7163 19.9615 88.734 19.9861 88.7458 20.0135C88.7575 20.0409 88.763 20.0706 88.7619 20.1004C88.7585 20.1758 88.7309 20.2482 88.6831 20.3071C88.6353 20.366 88.5699 20.4084 88.4962 20.4282C88.4647 20.4374 88.4315 20.4391 88.3992 20.4331C88.367 20.427 88.3367 20.4135 88.3108 20.3935" fill="white"/>
<path d="M87.0213 21.1122C87.1277 20.9485 87.2899 20.8279 87.4786 20.7722C87.5132 20.7619 87.5497 20.7595 87.5854 20.7651C87.621 20.7707 87.655 20.7843 87.6846 20.8048C87.7151 20.8328 87.7388 20.8674 87.7538 20.9059C87.7688 20.9443 87.7747 20.9856 87.7711 21.0267C87.7679 21.1063 87.7569 21.1854 87.7381 21.2629L87.5836 21.9571L87.7484 21.9184C87.763 21.9128 87.7792 21.9128 87.7937 21.9184C87.8016 21.9267 87.8061 21.9376 87.8061 21.949V21.9897L87.7752 22.1587C87.774 22.1767 87.7666 22.1938 87.7543 22.2071C87.7419 22.2205 87.7253 22.2292 87.7072 22.232L87.4662 22.2869C87.4283 22.3013 87.3877 22.3074 87.3472 22.305C87.3067 22.3025 87.2672 22.2915 87.2314 22.2727C87.2152 22.2582 87.2027 22.2401 87.1948 22.22C87.1869 22.1998 87.1839 22.1781 87.1861 22.1566C87.1868 22.1196 87.1916 22.0827 87.2005 22.0467V22.0182L87.3303 21.4074V21.3769C87.343 21.3283 87.3499 21.2784 87.3509 21.2283C87.3522 21.2171 87.3507 21.2059 87.3463 21.1955C87.342 21.1852 87.335 21.1761 87.3261 21.1692C87.3161 21.1622 87.3045 21.1576 87.2924 21.1559C87.2802 21.1541 87.2678 21.1552 87.2561 21.159C87.1037 21.1936 86.9821 21.4095 86.9039 21.7841L86.7782 22.3786C86.7782 22.4254 86.7535 22.4437 86.7102 22.4519L86.4404 22.515C86.433 22.5184 86.4249 22.5202 86.4167 22.5202C86.4085 22.5202 86.4004 22.5184 86.393 22.515C86.3896 22.5115 86.3869 22.5073 86.3851 22.5028C86.3834 22.4982 86.3825 22.4934 86.3827 22.4885C86.3827 22.4885 86.3827 22.4763 86.3827 22.4763V22.4478L86.5887 21.5275V21.5011C86.6033 21.4478 86.6122 21.3933 86.6155 21.3382V21.3178L86.463 21.3525C86.4559 21.3557 86.4482 21.3574 86.4404 21.3574C86.4325 21.3574 86.4248 21.3557 86.4177 21.3525C86.4135 21.3486 86.4102 21.3438 86.4081 21.3385C86.4059 21.3333 86.405 21.3276 86.4053 21.3219V21.2812L86.4383 21.1142C86.4391 21.0955 86.4466 21.0777 86.4594 21.0639C86.4722 21.0502 86.4896 21.0413 86.5083 21.0389L86.8936 20.9493C86.8994 20.9468 86.9057 20.9454 86.9121 20.9454C86.9185 20.9454 86.9248 20.9468 86.9306 20.9493C86.9554 20.9656 86.9698 21.0165 86.976 21.0939V21.1366L87.0213 21.1122ZM85.911 20.9697C85.8866 20.9497 85.8672 20.9244 85.8544 20.8958C85.8415 20.8672 85.8355 20.8361 85.8368 20.8048C85.8407 20.7297 85.8685 20.6578 85.9162 20.5993C85.9639 20.5408 86.0291 20.4987 86.1025 20.479C86.1351 20.4704 86.1691 20.469 86.2023 20.475C86.2354 20.481 86.2668 20.4942 86.2941 20.5136C86.3169 20.5334 86.335 20.5579 86.3471 20.5853C86.3592 20.6128 86.365 20.6425 86.3642 20.6725C86.3606 20.7481 86.3327 20.8207 86.2845 20.8797C86.2364 20.9386 86.1705 20.9808 86.0964 21.0002C86.065 21.009 86.032 21.0106 85.9999 21.0049C85.9678 20.9993 85.9374 20.9866 85.911 20.9677V20.9697ZM84.5823 21.5784C84.5947 21.4766 84.7409 21.4522 84.7409 21.4522L84.8645 21.4237L84.8954 21.2568C84.9014 21.1087 84.9587 20.9672 85.0577 20.856C85.1567 20.7448 85.2914 20.6706 85.4392 20.646C85.4887 20.6338 85.6844 20.6012 85.7379 20.646C85.742 20.6492 85.7454 20.6532 85.7478 20.6578C85.7503 20.6623 85.7519 20.6673 85.7524 20.6725V20.701L85.6823 20.9249C85.6658 20.9616 85.6452 20.9697 85.6349 20.9717C85.6172 20.9748 85.5991 20.9748 85.5814 20.9717C85.5413 20.9638 85.5 20.9638 85.4598 20.9717C85.3404 20.9982 85.3198 21.0756 85.2909 21.2099L85.2683 21.3239L86.1623 21.1204C86.1694 21.1173 86.1771 21.1158 86.1849 21.1158C86.1927 21.1158 86.2004 21.1173 86.2076 21.1204C86.2152 21.1296 86.2195 21.141 86.22 21.1529V21.1957L85.9892 22.3195L86.154 22.2808C86.161 22.2773 86.1688 22.2754 86.1767 22.2754C86.1846 22.2754 86.1923 22.2773 86.1994 22.2808C86.2044 22.2836 86.2084 22.2878 86.211 22.2929C86.2135 22.298 86.2145 22.3037 86.2138 22.3093V22.348L86.1829 22.517C86.182 22.5355 86.1744 22.553 86.1616 22.5665C86.1487 22.5799 86.1315 22.5884 86.1128 22.5903L85.8739 22.6453C85.836 22.6597 85.7954 22.6659 85.7549 22.6635C85.7144 22.661 85.6749 22.6499 85.6391 22.631C85.6232 22.6167 85.6108 22.599 85.6029 22.5792C85.5951 22.5595 85.5919 22.5382 85.5937 22.517C85.5948 22.4697 85.601 22.4226 85.6123 22.3765L85.7915 21.5031L85.2271 21.6354L84.9943 22.8468C84.9407 23.1319 84.8233 23.4698 84.4113 23.5655C84.2053 23.6123 84.158 23.596 84.1415 23.5818C84.125 23.5675 84.1415 23.5716 84.1415 23.5635V23.5289L84.2012 23.311C84.2136 23.2825 84.228 23.2662 84.2486 23.2622H84.2692C84.3025 23.2599 84.3355 23.2551 84.3681 23.2479C84.5329 23.2113 84.5741 23.1074 84.6111 22.8977L84.8316 21.7332L84.71 21.7617C84.6892 21.768 84.667 21.768 84.6462 21.7617C84.6173 21.7617 84.5967 21.7332 84.5967 21.6823V21.6599C84.5897 21.7041 84.5682 21.7448 84.5354 21.7758C84.5027 21.8067 84.4605 21.8261 84.4154 21.8309L84.2095 21.8818L83.9808 23.1033C83.9231 23.3863 83.8078 23.7243 83.3958 23.82C83.2001 23.8668 83.1424 23.8505 83.1239 23.8383C83.1053 23.8261 83.1239 23.8261 83.1239 23.8159V23.7813L83.1857 23.5655C83.196 23.537 83.2104 23.5207 83.231 23.5166H83.2516C83.2845 23.5197 83.3176 23.5197 83.3505 23.5166C83.5153 23.4759 83.5565 23.3741 83.5935 23.1644L83.814 21.9999L83.6327 22.0426C83.6183 22.0426 83.5977 22.0426 83.5853 22.0426C83.5768 22.0346 83.5717 22.0237 83.5709 22.0121V21.9714L83.6059 21.8004C83.6072 21.7828 83.6148 21.7662 83.6272 21.7536C83.6396 21.7409 83.6561 21.733 83.6739 21.7311L83.8654 21.6863L83.8799 21.6049C83.8868 21.5761 83.8916 21.5468 83.8943 21.5174V21.5174C83.8957 21.368 83.9491 21.2238 84.0455 21.1088C84.1419 20.9938 84.2755 20.9152 84.4237 20.8862C84.4731 20.876 84.6709 20.8455 84.7265 20.8862C84.7306 20.8893 84.7339 20.8933 84.7361 20.8979C84.7382 20.9025 84.7392 20.9076 84.7389 20.9127C84.7379 20.9222 84.7379 20.9317 84.7389 20.9412L84.6668 21.1651C84.6503 21.1998 84.6297 21.2099 84.6173 21.212C84.601 21.2151 84.5842 21.2151 84.5679 21.212C84.5271 21.204 84.4851 21.204 84.4443 21.212C84.3248 21.2384 84.3042 21.3158 84.2754 21.4481C84.2754 21.4481 84.2754 21.4481 84.2754 21.4604L84.2548 21.5642L84.4608 21.5153C84.4899 21.5083 84.5203 21.5083 84.5493 21.5153C84.5641 21.5226 84.576 21.5346 84.5831 21.5494C84.5902 21.5641 84.5921 21.5808 84.5885 21.5968L84.5823 21.5784Z" fill="white"/>
<path d="M82.8828 22.2523C82.8828 22.2971 82.786 22.7206 82.786 22.7206C82.7675 22.8102 82.6871 23.1115 82.4585 23.1644C82.4029 23.1766 82.3761 23.14 82.3761 23.0504C82.3761 22.741 82.5059 22.2605 82.7119 22.2137C82.7415 22.2073 82.7722 22.2074 82.8017 22.2141C82.8313 22.2208 82.859 22.2338 82.8828 22.2523V22.2523ZM83.1568 22.8244L83.3504 21.8798V21.8329C83.3504 21.8282 83.3493 21.8235 83.3472 21.8193C83.345 21.815 83.3419 21.8113 83.3381 21.8085C83.3319 21.8057 83.3253 21.8043 83.3185 21.8043C83.3118 21.8043 83.3051 21.8057 83.2989 21.8085L83.0682 21.8635C83.0528 21.8671 83.0386 21.8746 83.027 21.8853C83.0155 21.896 83.0069 21.9096 83.0023 21.9246V21.9246V21.9347L82.9879 21.9693L82.9714 21.9571C82.9295 21.9262 82.8807 21.9056 82.8291 21.8971C82.7775 21.8886 82.7246 21.8924 82.6748 21.9083C82.2875 21.9978 81.96 22.5659 81.96 23.1441C81.9505 23.2122 81.9565 23.2815 81.9775 23.347C81.9985 23.4125 82.0341 23.4725 82.0815 23.5228C82.1134 23.5443 82.1496 23.5588 82.1876 23.5651C82.2257 23.5714 82.2647 23.5695 82.3019 23.5594C82.4859 23.504 82.6424 23.3828 82.7407 23.2194L82.7675 23.1828V23.2255C82.7669 23.245 82.7707 23.2644 82.7785 23.2824C82.7864 23.3003 82.7981 23.3163 82.8128 23.3293C82.8561 23.3619 82.924 23.364 83.0332 23.3293L83.2165 23.2866C83.2348 23.2847 83.2519 23.2766 83.2647 23.2635C83.2775 23.2505 83.2852 23.2334 83.2866 23.2153L83.3175 23.0463V23.0056C83.3179 22.9952 83.3142 22.985 83.3072 22.9771C83.3001 22.9739 83.2924 22.9722 83.2845 22.9722C83.2767 22.9722 83.269 22.9739 83.2619 22.9771L83.1136 23.0117V22.9832C83.1136 22.9608 83.1135 22.8977 83.1403 22.8244" fill="white"/>
<path d="M90.3089 20.1451C90.316 20.1417 90.3237 20.14 90.3316 20.14C90.3394 20.14 90.3472 20.1417 90.3542 20.1451C90.3542 20.1451 90.3687 20.1655 90.3728 20.1859L90.4305 20.8516C90.4305 20.9371 90.4449 21.0552 90.449 21.1366H90.4799L90.5973 20.8211L90.931 20.0067C90.9344 19.9934 90.9413 19.9813 90.9511 19.9716C90.9609 19.9619 90.9732 19.955 90.9866 19.9517H91.0402L91.2627 19.9395C91.2977 19.9395 91.3121 19.9497 91.3121 19.9721C91.3115 19.9858 91.3072 19.9992 91.2998 20.0108V20.0108L90.723 21.3178L90.6694 21.438C90.5252 21.7759 90.3481 22.1953 89.9567 22.2869C89.8415 22.316 89.7199 22.3067 89.6106 22.2605C89.6063 22.2574 89.6028 22.2535 89.6003 22.2489C89.5978 22.2443 89.5964 22.2392 89.5962 22.234V22.2035L89.6992 21.9999C89.7036 21.9901 89.7101 21.9814 89.7183 21.9743C89.7265 21.9673 89.7361 21.9621 89.7466 21.9592C89.7663 21.9553 89.7866 21.9553 89.8063 21.9592C89.8577 21.972 89.9115 21.972 89.9629 21.9592C90.0119 21.9475 90.0576 21.925 90.0966 21.8932C90.1355 21.8614 90.1665 21.8213 90.1874 21.7759L90.2636 21.613L90.1833 21.6314C90.1681 21.6374 90.1511 21.6374 90.1359 21.6314C90.1267 21.6213 90.1215 21.6083 90.1215 21.5947L89.9896 20.5177L89.3902 20.6582L89.2542 21.3504C89.2416 21.3942 89.2347 21.4393 89.2336 21.4848C89.2322 21.4954 89.2335 21.5062 89.2375 21.5162C89.2415 21.5262 89.2479 21.535 89.2563 21.5418C89.2687 21.554 89.2913 21.556 89.3263 21.5418C89.405 21.5209 89.4791 21.4857 89.5447 21.438C89.558 21.4285 89.5725 21.421 89.5879 21.4156C89.6168 21.4156 89.623 21.4156 89.6291 21.438L89.6745 21.609V21.6416C89.6745 21.7271 89.3243 21.8757 89.1842 21.9083C89.1362 21.9258 89.0848 21.9325 89.0339 21.9279C88.9829 21.9233 88.9336 21.9076 88.8896 21.8818C88.8616 21.8562 88.8402 21.8244 88.8269 21.789C88.8137 21.7536 88.8091 21.7157 88.8134 21.6782C88.814 21.613 88.8223 21.5481 88.8381 21.4848L88.9906 20.7376L88.5394 20.8414L88.3561 21.7413L88.5188 21.7026C88.526 21.6995 88.5337 21.6979 88.5415 21.6979C88.5493 21.6979 88.557 21.6995 88.5642 21.7026C88.5683 21.7061 88.5716 21.7105 88.5737 21.7154C88.5759 21.7204 88.5768 21.7258 88.5765 21.7311V21.7719L88.5436 21.9408C88.5431 21.9592 88.5356 21.9768 88.5226 21.99C88.5096 22.0032 88.4921 22.0111 88.4735 22.0121L88.2366 22.0671C88.199 22.0825 88.1582 22.0893 88.1175 22.0868C88.0768 22.0843 88.0373 22.0727 88.0018 22.0528C87.9853 22.0389 87.9723 22.0213 87.9641 22.0015C87.9559 21.9817 87.9525 21.9602 87.9544 21.9388C87.9566 21.8922 87.9628 21.8459 87.973 21.8004L88.1542 20.9269L88.008 20.9616C88.0009 20.965 87.9932 20.9667 87.9853 20.9667C87.9775 20.9667 87.9697 20.965 87.9627 20.9616C87.9587 20.9576 87.9557 20.9528 87.9539 20.9475C87.9521 20.9422 87.9516 20.9365 87.9524 20.931V20.8903L87.9833 20.7233C87.9833 20.6602 88.0533 20.6541 88.0904 20.6439L89.0544 20.42V20.4098C89.0647 20.3508 89.1224 20.0678 89.1224 20.0678C89.1259 20.0522 89.1334 20.0379 89.1443 20.0261C89.1551 20.0143 89.1689 20.0055 89.1842 20.0006L89.4479 19.9029H89.4602H89.487C89.4908 19.9007 89.495 19.8996 89.4994 19.8996C89.5037 19.8996 89.508 19.9007 89.5117 19.9029C89.5166 19.9063 89.5204 19.9109 89.523 19.9163C89.5255 19.9216 89.5266 19.9275 89.5261 19.9334V19.9823L89.4541 20.3121V20.3365L90.3089 20.1451Z" fill="white"/>
<path d="M31.2382 39.3786H29.7962C29.6252 39.3786 29.5737 39.3114 29.5737 39.1587V32.1062C29.5737 31.9535 29.6252 31.8843 29.7962 31.8843H31.3123C34.0541 31.8843 35.5702 33.3502 35.5702 35.5816C35.5702 37.931 34.0541 39.3786 31.2444 39.3786H31.2382ZM31.5204 29.6713H27.5694C27.2769 29.6713 27.1574 29.7893 27.1574 30.0784V41.1844C27.1574 41.4735 27.279 41.5916 27.5694 41.5916H31.2402C35.5311 41.5916 38.0648 39.2075 38.0648 35.494C38.0648 31.9678 35.6526 29.6692 31.5163 29.6692" fill="white"/>
<path d="M50.8467 29.9095C50.8467 29.7384 50.7087 29.6713 50.4677 29.6713H48.933C48.521 29.6713 48.3645 29.7893 48.1564 30.1986L44.7102 37.4546L41.2289 30.1986C41.0229 29.7914 40.8684 29.6713 40.4708 29.6713H38.8332C38.5921 29.6713 38.4541 29.7384 38.4541 29.9095C38.4638 30.0105 38.4932 30.1086 38.5406 30.1986L43.9356 41.0134C44.2632 41.6792 44.4177 41.8665 44.6587 41.8665C44.8997 41.8665 45.0707 41.6792 45.4002 41.0134L50.7561 30.1986C50.8015 30.1078 50.8308 30.01 50.8426 29.9095" fill="white"/>
<path d="M72.4204 29.6713H70.8528C70.5603 29.6713 70.4408 29.7894 70.4408 30.0785V36.8764L63.8717 30.0113C63.4762 29.6183 63.2702 29.4656 63.0477 29.4656C62.7882 29.4656 62.6687 29.6692 62.6687 30.0764V41.1844C62.6687 41.4735 62.7882 41.5916 63.0807 41.5916H64.6483C64.9593 41.5916 65.0788 41.4715 65.0788 41.1844V34.3885L71.6521 41.2455C72.0476 41.6364 72.2556 41.7891 72.4616 41.7891C72.7377 41.7891 72.8571 41.5855 72.8571 41.1783V30.0785C72.8571 29.7894 72.7191 29.6713 72.4266 29.6713" fill="white"/>
<path d="M81.3338 31.6766C82.4709 31.6965 83.5712 32.0785 84.4711 32.7659C84.5591 32.8403 84.6672 32.8877 84.7821 32.9023C84.8462 32.8946 84.9075 32.8722 84.9611 32.8368C85.0148 32.8015 85.0593 32.7541 85.0911 32.6987L85.8492 31.642C85.92 31.561 85.9626 31.4597 85.9707 31.3529C85.9707 31.2511 85.9007 31.1656 85.7812 31.0455C84.5415 30.0265 82.9812 29.4664 81.3688 29.4615C77.6815 29.4615 74.9583 32.1083 74.9583 35.6793C74.9583 39.2218 77.698 41.7871 81.2493 41.7871C82.8913 41.7887 84.4821 41.2226 85.7462 40.1868C85.9007 40.0504 85.9707 39.9486 85.9707 39.8285C85.9609 39.7359 85.9252 39.6478 85.8677 39.574L85.1097 38.5011C85.0827 38.4499 85.0434 38.406 84.9953 38.3734C84.9472 38.3407 84.8916 38.3202 84.8336 38.3138C84.7093 38.3236 84.5929 38.3779 84.5061 38.4665C83.6113 39.1893 82.4894 39.581 81.3338 39.574C79.1111 39.574 77.457 37.9045 77.457 35.6386C77.4508 33.2809 79.14 31.6766 81.3338 31.6766Z" fill="white"/>
<path d="M95.1477 39.3786H90.4428C90.2719 39.3786 90.2183 39.3114 90.2183 39.1587V36.9192C90.2183 36.7502 90.2719 36.6993 90.4428 36.6993H94.5442C94.8387 36.6993 94.9747 36.5812 94.9747 36.2921V34.9158C94.9747 34.6104 94.8387 34.4903 94.5442 34.4903H90.4428C90.2719 34.4903 90.2183 34.4394 90.2183 34.2704V32.1062C90.2183 31.9535 90.2719 31.8843 90.4428 31.8843H95.1354C95.4279 31.8843 95.5659 31.7825 95.5659 31.4771V30.0785C95.5659 29.7893 95.4279 29.6713 95.1354 29.6713H88.2202C87.9276 29.6713 87.8082 29.7893 87.8082 30.0785V41.1844C87.8082 41.4735 87.9297 41.5916 88.2202 41.5916H95.1477C95.4402 41.5916 95.5783 41.4715 95.5783 41.1844V39.7878C95.5783 39.4824 95.4402 39.3806 95.1477 39.3806" fill="white"/>
<path d="M20.3308 30.2515C20.0033 29.5878 19.8653 29.4005 19.6078 29.4005C19.3503 29.4005 19.1958 29.5878 18.8662 30.2515L13.5103 41.0664C13.4646 41.1577 13.4353 41.2562 13.4238 41.3575C13.4238 41.5265 13.5618 41.5957 13.8029 41.5957H15.3334C15.7454 41.5957 15.9019 41.4939 16.1079 41.0664L19.5563 33.8103L21.1074 37.0454H20.1536C20.1182 37.0452 20.0834 37.0551 20.0535 37.0739C20.0236 37.0926 19.9997 37.1195 19.9847 37.1513L19.1608 38.8777C19.1471 38.9061 19.141 38.9374 19.143 38.9687C19.145 39.0001 19.155 39.0304 19.1721 39.0568C19.1892 39.0833 19.2128 39.105 19.2407 39.12C19.2687 39.135 19.3 39.1427 19.3317 39.1424H22.09H22.1126L23.0376 41.0643C23.2436 41.4919 23.398 41.5937 23.7956 41.5937H25.4333C25.6743 41.5937 25.8123 41.5244 25.8123 41.3555C25.803 41.2538 25.7736 41.1548 25.7258 41.0643L20.3308 30.2515Z" fill="white"/>
<path d="M55.8441 30.2515C55.5166 29.5878 55.3786 29.4005 55.1211 29.4005C54.8636 29.4005 54.7091 29.5878 54.3795 30.2515L49.0237 41.0664C48.9779 41.1577 48.9486 41.2562 48.9372 41.3575C48.9372 41.5265 49.0752 41.5957 49.3162 41.5957H50.8467C51.2587 41.5957 51.4153 41.4939 51.6213 41.0664L55.0696 33.8103L56.6146 37.0454H55.6567C55.621 37.0453 55.586 37.0552 55.5558 37.074C55.5255 37.0927 55.5012 37.1195 55.4857 37.1513L54.6617 38.8777C54.6481 38.9061 54.642 38.9374 54.644 38.9687C54.646 39.0001 54.656 39.0304 54.6731 39.0568C54.6902 39.0833 54.7138 39.105 54.7417 39.12C54.7696 39.135 54.8009 39.1427 54.8327 39.1424H57.5868H57.6095L58.5344 41.0684C58.7404 41.4959 58.897 41.5977 59.2945 41.5977H60.9404C61.1835 41.5977 61.3194 41.5285 61.3194 41.3595C61.311 41.2579 61.2823 41.159 61.235 41.0684L55.8441 30.2515Z" fill="white"/>
</svg>
